<?xml version="1.0" standalone="no"?>
<!DOCTYPE svg PUBLIC "-//W3C//DTD SVG 20010904//EN"
 "http://www.w3.org/TR/2001/REC-SVG-20010904/DTD/svg10.dtd">
<svg version="1.0" xmlns="http://www.w3.org/2000/svg"
 width="512.000000pt" height="512.000000pt" viewBox="0 0 512.000000 512.000000"
 preserveAspectRatio="xMidYMid meet">
<metadata>
Created by potrace 1.14, written by Peter Selinger 2001-2017
</metadata>
<g transform="translate(0.000000,512.000000) scale(0.100000,-0.100000)"
fill="#000000" stroke="none">
<path d="M2425 4579 c-873 -59 -1610 -674 -1825 -1524 -47 -184 -64 -351 -57
-572 3 -106 8 -197 12 -203 3 -6 42 61 85 147 359 721 826 1193 1513 1529
l169 82 -106 93 c-58 51 -105 94 -103 95 12 12 269 34 402 34 281 0 554 -48
789 -139 l28 -11 -158 -163 c-224 -229 -418 -459 -522 -615 -24 -35 -38 -49
-42 -40 -4 7 -22 90 -40 183 -18 94 -36 176 -40 183 -4 9 -25 -1 -71 -36 -337
-256 -576 -659 -690 -1167 -77 -342 -90 -785 -34 -1138 8 -48 16 -91 19 -96
11 -18 309 52 456 106 350 130 636 344 865 648 75 99 189 275 183 281 -2 1
-93 -4 -203 -10 -110 -7 -201 -12 -203 -10 -2 1 42 53 97 116 196 221 377 471
521 721 41 72 77 124 82 119 20 -20 185 -321 267 -487 86 -172 234 -510 247
-559 l6 -24 -94 28 c-51 15 -125 37 -165 48 l-72 20 6 -106 c3 -59 0 -200 -6
-314 -18 -327 -50 -555 -117 -827 -19 -79 -33 -145 -31 -147 2 -2 37 18 78 44
419 275 736 722 852 1202 58 238 73 515 42 753 -139 1057 -1078 1828 -2140
1756z"/>
</g>
</svg>
